<mxfile host="www.draw.io" modified="2020-02-11T02:11:47.717Z" agent="Mozilla/5.0 (Windows NT 10.0; Win64; x64) AppleWebKit/537.36 (KHTML, like Gecko) Chrome/79.0.3945.130 Safari/537.36" etag="yXJ50FaXIvyb2B1_6HI0" version="12.6.7" type="github" pages="4">
  <diagram name="Page-1" id="UDUhUKJvfS0_RFXBdcF0">
    <mxGraphModel dx="782" dy="437" grid="1" gridSize="10" guides="1" tooltips="1" connect="1" arrows="1" fold="1" page="1" pageScale="1" pageWidth="827" pageHeight="1169" math="0" shadow="0">
      <root>
        <mxCell id="0"/>
        <mxCell id="1" parent="0"/>
        <mxCell id="E_35p48S9LyC-1adH_UQ-1" value="Apama&amp;nbsp; &amp;nbsp; &amp;nbsp; &amp;nbsp; &amp;nbsp; &amp;nbsp; &amp;nbsp; &amp;nbsp; &amp;nbsp; &amp;nbsp; &amp;nbsp; &amp;nbsp; &amp;nbsp; &amp;nbsp; &amp;nbsp; &amp;nbsp; &amp;nbsp; &amp;nbsp; &amp;nbsp; &amp;nbsp; &amp;nbsp; &amp;nbsp; &amp;nbsp; &amp;nbsp; &amp;nbsp; &amp;nbsp; &amp;nbsp; &amp;nbsp; &amp;nbsp; &amp;nbsp; &amp;nbsp; &amp;nbsp; &amp;nbsp; &amp;nbsp; &amp;nbsp; &amp;nbsp; &amp;nbsp; &amp;nbsp; &amp;nbsp; &amp;nbsp; &amp;nbsp; &amp;nbsp; &amp;nbsp; &amp;nbsp; &amp;nbsp; &amp;nbsp; &amp;nbsp; &amp;nbsp; &amp;nbsp; &amp;nbsp; &amp;nbsp; &amp;nbsp; &amp;nbsp; &amp;nbsp; &amp;nbsp; &amp;nbsp; &amp;nbsp; &amp;nbsp; &amp;nbsp; &amp;nbsp; &amp;nbsp; &amp;nbsp; &amp;nbsp; &amp;nbsp; &amp;nbsp; &amp;nbsp; &amp;nbsp; &amp;nbsp; &amp;nbsp; &amp;nbsp; &amp;nbsp; &amp;nbsp; &amp;nbsp; &amp;nbsp; &amp;nbsp; &amp;nbsp; &amp;nbsp; &amp;nbsp; &amp;nbsp; &amp;nbsp; &amp;nbsp; &amp;nbsp; &amp;nbsp; &amp;nbsp; &amp;nbsp; &amp;nbsp; &amp;nbsp; &amp;nbsp; &amp;nbsp; &amp;nbsp; &amp;nbsp; &amp;nbsp; &amp;nbsp; &amp;nbsp; &amp;nbsp; &amp;nbsp; &amp;nbsp; &amp;nbsp; &amp;nbsp; &amp;nbsp; &amp;nbsp; &amp;nbsp; &amp;nbsp; &amp;nbsp; &amp;nbsp; &amp;nbsp; &amp;nbsp; &amp;nbsp; &amp;nbsp; &amp;nbsp; &amp;nbsp; &amp;nbsp; &amp;nbsp; &amp;nbsp; &amp;nbsp;&lt;br&gt;&lt;br&gt;&lt;br&gt;&lt;br&gt;&lt;br&gt;&lt;br&gt;&lt;br&gt;&lt;br&gt;" style="rounded=1;whiteSpace=wrap;html=1;shadow=0;comic=0;glass=0;dashed=1;" parent="1" vertex="1">
          <mxGeometry x="250" y="510" width="900" height="160" as="geometry"/>
        </mxCell>
        <mxCell id="E_35p48S9LyC-1adH_UQ-2" style="edgeStyle=orthogonalEdgeStyle;rounded=0;orthogonalLoop=1;jettySize=auto;html=1;entryX=0.5;entryY=0;entryDx=0;entryDy=0;startArrow=none;startFill=0;" parent="1" source="E_35p48S9LyC-1adH_UQ-3" target="E_35p48S9LyC-1adH_UQ-6" edge="1">
          <mxGeometry relative="1" as="geometry"/>
        </mxCell>
        <mxCell id="E_35p48S9LyC-1adH_UQ-3" value="Request" style="ellipse;whiteSpace=wrap;html=1;" parent="1" vertex="1">
          <mxGeometry x="590" y="80" width="80" height="40" as="geometry"/>
        </mxCell>
        <mxCell id="E_35p48S9LyC-1adH_UQ-4" value="" style="edgeStyle=orthogonalEdgeStyle;rounded=0;orthogonalLoop=1;jettySize=auto;html=1;startArrow=classic;startFill=1;entryX=0;entryY=0.5;entryDx=0;entryDy=0;" parent="1" source="E_35p48S9LyC-1adH_UQ-6" target="E_35p48S9LyC-1adH_UQ-9" edge="1">
          <mxGeometry relative="1" as="geometry">
            <mxPoint x="730" y="180" as="targetPoint"/>
          </mxGeometry>
        </mxCell>
        <mxCell id="E_35p48S9LyC-1adH_UQ-5" value="" style="edgeStyle=orthogonalEdgeStyle;rounded=0;orthogonalLoop=1;jettySize=auto;html=1;startArrow=none;startFill=0;" parent="1" source="E_35p48S9LyC-1adH_UQ-6" target="E_35p48S9LyC-1adH_UQ-8" edge="1">
          <mxGeometry relative="1" as="geometry"/>
        </mxCell>
        <mxCell id="E_35p48S9LyC-1adH_UQ-6" value="Market Data" style="rounded=1;whiteSpace=wrap;html=1;" parent="1" vertex="1">
          <mxGeometry x="590" y="160" width="80" height="40" as="geometry"/>
        </mxCell>
        <mxCell id="E_35p48S9LyC-1adH_UQ-7" style="edgeStyle=orthogonalEdgeStyle;rounded=0;orthogonalLoop=1;jettySize=auto;html=1;entryX=0.5;entryY=0;entryDx=0;entryDy=0;startArrow=none;startFill=0;" parent="1" source="E_35p48S9LyC-1adH_UQ-8" target="E_35p48S9LyC-1adH_UQ-21" edge="1">
          <mxGeometry relative="1" as="geometry">
            <Array as="points">
              <mxPoint x="330" y="250"/>
            </Array>
          </mxGeometry>
        </mxCell>
        <mxCell id="E_35p48S9LyC-1adH_UQ-8" value="M1 Data" style="rounded=1;whiteSpace=wrap;html=1;" parent="1" vertex="1">
          <mxGeometry x="590" y="230" width="80" height="40" as="geometry"/>
        </mxCell>
        <mxCell id="E_35p48S9LyC-1adH_UQ-9" value="数据库" style="shape=cylinder;whiteSpace=wrap;html=1;boundedLbl=1;backgroundOutline=1;" parent="1" vertex="1">
          <mxGeometry x="810" y="140" width="60" height="80" as="geometry"/>
        </mxCell>
        <mxCell id="E_35p48S9LyC-1adH_UQ-10" style="edgeStyle=orthogonalEdgeStyle;rounded=0;orthogonalLoop=1;jettySize=auto;html=1;entryX=0;entryY=0.5;entryDx=0;entryDy=0;startArrow=none;startFill=0;" parent="1" source="E_35p48S9LyC-1adH_UQ-11" target="E_35p48S9LyC-1adH_UQ-13" edge="1">
          <mxGeometry relative="1" as="geometry"/>
        </mxCell>
        <mxCell id="E_35p48S9LyC-1adH_UQ-11" value="M10 Data" style="rounded=1;whiteSpace=wrap;html=1;" parent="1" vertex="1">
          <mxGeometry x="410" y="300" width="80" height="40" as="geometry"/>
        </mxCell>
        <mxCell id="E_35p48S9LyC-1adH_UQ-12" style="edgeStyle=orthogonalEdgeStyle;rounded=0;orthogonalLoop=1;jettySize=auto;html=1;entryX=0;entryY=0.5;entryDx=0;entryDy=0;startArrow=none;startFill=0;" parent="1" source="E_35p48S9LyC-1adH_UQ-13" target="E_35p48S9LyC-1adH_UQ-15" edge="1">
          <mxGeometry relative="1" as="geometry"/>
        </mxCell>
        <mxCell id="E_35p48S9LyC-1adH_UQ-13" value="M15 Data" style="rounded=1;whiteSpace=wrap;html=1;" parent="1" vertex="1">
          <mxGeometry x="530" y="300" width="80" height="40" as="geometry"/>
        </mxCell>
        <mxCell id="E_35p48S9LyC-1adH_UQ-14" style="edgeStyle=orthogonalEdgeStyle;rounded=0;orthogonalLoop=1;jettySize=auto;html=1;exitX=1;exitY=0.5;exitDx=0;exitDy=0;entryX=0;entryY=0.5;entryDx=0;entryDy=0;startArrow=none;startFill=0;" parent="1" source="E_35p48S9LyC-1adH_UQ-15" target="E_35p48S9LyC-1adH_UQ-17" edge="1">
          <mxGeometry relative="1" as="geometry"/>
        </mxCell>
        <mxCell id="E_35p48S9LyC-1adH_UQ-15" value="M30 Data" style="rounded=1;whiteSpace=wrap;html=1;" parent="1" vertex="1">
          <mxGeometry x="650" y="300" width="80" height="40" as="geometry"/>
        </mxCell>
        <mxCell id="E_35p48S9LyC-1adH_UQ-16" value="" style="edgeStyle=orthogonalEdgeStyle;rounded=0;orthogonalLoop=1;jettySize=auto;html=1;startArrow=none;startFill=0;" parent="1" source="E_35p48S9LyC-1adH_UQ-17" target="E_35p48S9LyC-1adH_UQ-19" edge="1">
          <mxGeometry relative="1" as="geometry"/>
        </mxCell>
        <mxCell id="E_35p48S9LyC-1adH_UQ-17" value="H1 Data" style="rounded=1;whiteSpace=wrap;html=1;" parent="1" vertex="1">
          <mxGeometry x="760" y="300" width="80" height="40" as="geometry"/>
        </mxCell>
        <mxCell id="E_35p48S9LyC-1adH_UQ-18" value="" style="edgeStyle=orthogonalEdgeStyle;rounded=0;orthogonalLoop=1;jettySize=auto;html=1;startArrow=none;startFill=0;" parent="1" source="E_35p48S9LyC-1adH_UQ-19" target="E_35p48S9LyC-1adH_UQ-24" edge="1">
          <mxGeometry relative="1" as="geometry"/>
        </mxCell>
        <mxCell id="E_35p48S9LyC-1adH_UQ-19" value="H4 Data" style="rounded=1;whiteSpace=wrap;html=1;" parent="1" vertex="1">
          <mxGeometry x="870" y="300" width="80" height="40" as="geometry"/>
        </mxCell>
        <mxCell id="E_35p48S9LyC-1adH_UQ-20" style="edgeStyle=orthogonalEdgeStyle;rounded=0;orthogonalLoop=1;jettySize=auto;html=1;entryX=0;entryY=0.5;entryDx=0;entryDy=0;startArrow=none;startFill=0;" parent="1" source="E_35p48S9LyC-1adH_UQ-21" target="E_35p48S9LyC-1adH_UQ-11" edge="1">
          <mxGeometry relative="1" as="geometry"/>
        </mxCell>
        <mxCell id="E_35p48S9LyC-1adH_UQ-21" value="M5 Data" style="rounded=1;whiteSpace=wrap;html=1;" parent="1" vertex="1">
          <mxGeometry x="290" y="300" width="80" height="40" as="geometry"/>
        </mxCell>
        <mxCell id="E_35p48S9LyC-1adH_UQ-22" style="edgeStyle=orthogonalEdgeStyle;rounded=0;orthogonalLoop=1;jettySize=auto;html=1;entryX=0.5;entryY=0;entryDx=0;entryDy=0;startArrow=none;startFill=0;" parent="1" source="E_35p48S9LyC-1adH_UQ-24" target="E_35p48S9LyC-1adH_UQ-29" edge="1">
          <mxGeometry relative="1" as="geometry">
            <Array as="points">
              <mxPoint x="1017" y="380"/>
              <mxPoint x="360" y="380"/>
            </Array>
          </mxGeometry>
        </mxCell>
        <mxCell id="E_35p48S9LyC-1adH_UQ-23" style="edgeStyle=orthogonalEdgeStyle;rounded=0;orthogonalLoop=1;jettySize=auto;html=1;entryX=1;entryY=0.5;entryDx=0;entryDy=0;startArrow=none;startFill=0;" parent="1" source="E_35p48S9LyC-1adH_UQ-24" target="E_35p48S9LyC-1adH_UQ-9" edge="1">
          <mxGeometry relative="1" as="geometry">
            <Array as="points">
              <mxPoint x="1017" y="180"/>
            </Array>
          </mxGeometry>
        </mxCell>
        <mxCell id="E_35p48S9LyC-1adH_UQ-24" value="D1 Data" style="rounded=1;whiteSpace=wrap;html=1;" parent="1" vertex="1">
          <mxGeometry x="977" y="300" width="80" height="40" as="geometry"/>
        </mxCell>
        <mxCell id="E_35p48S9LyC-1adH_UQ-25" style="edgeStyle=orthogonalEdgeStyle;rounded=0;orthogonalLoop=1;jettySize=auto;html=1;entryX=0;entryY=0.5;entryDx=0;entryDy=0;startArrow=none;startFill=0;" parent="1" source="E_35p48S9LyC-1adH_UQ-26" target="E_35p48S9LyC-1adH_UQ-42" edge="1">
          <mxGeometry relative="1" as="geometry"/>
        </mxCell>
        <mxCell id="E_35p48S9LyC-1adH_UQ-26" value="将生成的D1 Ohlc数据发送到apama缓存" style="rounded=1;whiteSpace=wrap;html=1;" parent="1" vertex="1">
          <mxGeometry x="305" y="560" width="110" height="60" as="geometry"/>
        </mxCell>
        <mxCell id="E_35p48S9LyC-1adH_UQ-27" value="" style="edgeStyle=orthogonalEdgeStyle;rounded=0;orthogonalLoop=1;jettySize=auto;html=1;startArrow=none;startFill=0;" parent="1" source="E_35p48S9LyC-1adH_UQ-29" target="E_35p48S9LyC-1adH_UQ-32" edge="1">
          <mxGeometry relative="1" as="geometry"/>
        </mxCell>
        <mxCell id="E_35p48S9LyC-1adH_UQ-28" style="edgeStyle=orthogonalEdgeStyle;rounded=0;orthogonalLoop=1;jettySize=auto;html=1;entryX=0.5;entryY=0;entryDx=0;entryDy=0;startArrow=none;startFill=0;" parent="1" source="E_35p48S9LyC-1adH_UQ-29" target="E_35p48S9LyC-1adH_UQ-26" edge="1">
          <mxGeometry relative="1" as="geometry"/>
        </mxCell>
        <mxCell id="E_35p48S9LyC-1adH_UQ-29" value="不超过一天" style="rhombus;whiteSpace=wrap;html=1;" parent="1" vertex="1">
          <mxGeometry x="300" y="430" width="120" height="50" as="geometry"/>
        </mxCell>
        <mxCell id="E_35p48S9LyC-1adH_UQ-30" value="" style="edgeStyle=orthogonalEdgeStyle;rounded=0;orthogonalLoop=1;jettySize=auto;html=1;startArrow=none;startFill=0;" parent="1" source="E_35p48S9LyC-1adH_UQ-32" target="E_35p48S9LyC-1adH_UQ-35" edge="1">
          <mxGeometry relative="1" as="geometry"/>
        </mxCell>
        <mxCell id="E_35p48S9LyC-1adH_UQ-31" style="edgeStyle=orthogonalEdgeStyle;rounded=0;orthogonalLoop=1;jettySize=auto;html=1;entryX=0.5;entryY=0;entryDx=0;entryDy=0;startArrow=none;startFill=0;" parent="1" source="E_35p48S9LyC-1adH_UQ-32" target="E_35p48S9LyC-1adH_UQ-42" edge="1">
          <mxGeometry relative="1" as="geometry"/>
        </mxCell>
        <mxCell id="E_35p48S9LyC-1adH_UQ-32" value="超过一天不超过一周" style="rhombus;whiteSpace=wrap;html=1;" parent="1" vertex="1">
          <mxGeometry x="460" y="430" width="190" height="50" as="geometry"/>
        </mxCell>
        <mxCell id="E_35p48S9LyC-1adH_UQ-33" value="" style="edgeStyle=orthogonalEdgeStyle;rounded=0;orthogonalLoop=1;jettySize=auto;html=1;startArrow=none;startFill=0;" parent="1" source="E_35p48S9LyC-1adH_UQ-35" target="E_35p48S9LyC-1adH_UQ-37" edge="1">
          <mxGeometry relative="1" as="geometry"/>
        </mxCell>
        <mxCell id="E_35p48S9LyC-1adH_UQ-34" style="edgeStyle=orthogonalEdgeStyle;rounded=0;orthogonalLoop=1;jettySize=auto;html=1;entryX=0.5;entryY=0;entryDx=0;entryDy=0;startArrow=none;startFill=0;" parent="1" source="E_35p48S9LyC-1adH_UQ-35" target="E_35p48S9LyC-1adH_UQ-44" edge="1">
          <mxGeometry relative="1" as="geometry"/>
        </mxCell>
        <mxCell id="E_35p48S9LyC-1adH_UQ-35" value="超过一周不超过一月" style="rhombus;whiteSpace=wrap;html=1;" parent="1" vertex="1">
          <mxGeometry x="690" y="430" width="190" height="50" as="geometry"/>
        </mxCell>
        <mxCell id="E_35p48S9LyC-1adH_UQ-36" style="edgeStyle=orthogonalEdgeStyle;rounded=0;orthogonalLoop=1;jettySize=auto;html=1;entryX=0.5;entryY=0;entryDx=0;entryDy=0;startArrow=none;startFill=0;" parent="1" source="E_35p48S9LyC-1adH_UQ-37" target="E_35p48S9LyC-1adH_UQ-45" edge="1">
          <mxGeometry relative="1" as="geometry"/>
        </mxCell>
        <mxCell id="E_35p48S9LyC-1adH_UQ-37" value="超过一月" style="rhombus;whiteSpace=wrap;html=1;" parent="1" vertex="1">
          <mxGeometry x="930" y="430" width="190" height="50" as="geometry"/>
        </mxCell>
        <mxCell id="E_35p48S9LyC-1adH_UQ-38" value="N" style="text;html=1;align=center;verticalAlign=middle;resizable=0;points=[];autosize=1;" parent="1" vertex="1">
          <mxGeometry x="430" y="440" width="20" height="20" as="geometry"/>
        </mxCell>
        <mxCell id="E_35p48S9LyC-1adH_UQ-39" value="N" style="text;html=1;align=center;verticalAlign=middle;resizable=0;points=[];autosize=1;" parent="1" vertex="1">
          <mxGeometry x="650" y="440" width="20" height="20" as="geometry"/>
        </mxCell>
        <mxCell id="E_35p48S9LyC-1adH_UQ-40" value="N" style="text;html=1;align=center;verticalAlign=middle;resizable=0;points=[];autosize=1;" parent="1" vertex="1">
          <mxGeometry x="890" y="440" width="20" height="20" as="geometry"/>
        </mxCell>
        <mxCell id="E_35p48S9LyC-1adH_UQ-41" style="edgeStyle=orthogonalEdgeStyle;rounded=0;orthogonalLoop=1;jettySize=auto;html=1;entryX=0;entryY=0.5;entryDx=0;entryDy=0;startArrow=none;startFill=0;" parent="1" source="E_35p48S9LyC-1adH_UQ-42" target="E_35p48S9LyC-1adH_UQ-44" edge="1">
          <mxGeometry relative="1" as="geometry"/>
        </mxCell>
        <mxCell id="E_35p48S9LyC-1adH_UQ-42" value="将本周已经入库的D1数据和缓存中的数据计算W1数据" style="rounded=1;whiteSpace=wrap;html=1;" parent="1" vertex="1">
          <mxGeometry x="470" y="560" width="170" height="60" as="geometry"/>
        </mxCell>
        <mxCell id="E_35p48S9LyC-1adH_UQ-43" style="edgeStyle=orthogonalEdgeStyle;rounded=0;orthogonalLoop=1;jettySize=auto;html=1;entryX=0;entryY=0.5;entryDx=0;entryDy=0;startArrow=none;startFill=0;" parent="1" source="E_35p48S9LyC-1adH_UQ-44" target="E_35p48S9LyC-1adH_UQ-45" edge="1">
          <mxGeometry relative="1" as="geometry"/>
        </mxCell>
        <mxCell id="E_35p48S9LyC-1adH_UQ-44" value="将本月已经入库的W1数据和缓存中的数据计算T1数据" style="rounded=1;whiteSpace=wrap;html=1;" parent="1" vertex="1">
          <mxGeometry x="690" y="560" width="190" height="60" as="geometry"/>
        </mxCell>
        <mxCell id="E_35p48S9LyC-1adH_UQ-45" value="将已经入库的T1数据和缓存中的数据计算" style="rounded=1;whiteSpace=wrap;html=1;" parent="1" vertex="1">
          <mxGeometry x="930" y="560" width="190" height="60" as="geometry"/>
        </mxCell>
        <mxCell id="E_35p48S9LyC-1adH_UQ-46" value="Y" style="text;html=1;align=center;verticalAlign=middle;resizable=0;points=[];autosize=1;" parent="1" vertex="1">
          <mxGeometry x="360" y="490" width="20" height="20" as="geometry"/>
        </mxCell>
        <mxCell id="E_35p48S9LyC-1adH_UQ-47" value="Y" style="text;html=1;align=center;verticalAlign=middle;resizable=0;points=[];autosize=1;" parent="1" vertex="1">
          <mxGeometry x="560" y="490" width="20" height="20" as="geometry"/>
        </mxCell>
        <mxCell id="E_35p48S9LyC-1adH_UQ-48" value="Y" style="text;html=1;align=center;verticalAlign=middle;resizable=0;points=[];autosize=1;" parent="1" vertex="1">
          <mxGeometry x="790" y="490" width="20" height="20" as="geometry"/>
        </mxCell>
        <mxCell id="E_35p48S9LyC-1adH_UQ-49" value="Y" style="text;html=1;align=center;verticalAlign=middle;resizable=0;points=[];autosize=1;" parent="1" vertex="1">
          <mxGeometry x="1030" y="490" width="20" height="20" as="geometry"/>
        </mxCell>
      </root>
    </mxGraphModel>
  </diagram>
  <diagram name="Page-2" id="GYwufgLhAuPzBvCv1lh5">
    <mxGraphModel dx="782" dy="437" grid="1" gridSize="10" guides="1" tooltips="1" connect="1" arrows="1" fold="1" page="1" pageScale="1" pageWidth="827" pageHeight="1169" math="0" shadow="0">
      <root>
        <mxCell id="NFfXi9lb8GUTKZxlFxMv-0"/>
        <mxCell id="NFfXi9lb8GUTKZxlFxMv-1" parent="NFfXi9lb8GUTKZxlFxMv-0"/>
        <mxCell id="NFfXi9lb8GUTKZxlFxMv-11" value="" style="rounded=1;whiteSpace=wrap;html=1;dashed=1;" parent="NFfXi9lb8GUTKZxlFxMv-1" vertex="1">
          <mxGeometry x="160" y="200" width="410" height="410" as="geometry"/>
        </mxCell>
        <mxCell id="NFfXi9lb8GUTKZxlFxMv-6" value="" style="rounded=1;whiteSpace=wrap;html=1;dashed=1;" parent="NFfXi9lb8GUTKZxlFxMv-1" vertex="1">
          <mxGeometry x="100" y="50" width="550" height="100" as="geometry"/>
        </mxCell>
        <mxCell id="t-wNm0rdj1KhYYdMgisc-0" style="edgeStyle=orthogonalEdgeStyle;rounded=0;orthogonalLoop=1;jettySize=auto;html=1;entryX=0.5;entryY=0;entryDx=0;entryDy=0;" parent="NFfXi9lb8GUTKZxlFxMv-1" source="NFfXi9lb8GUTKZxlFxMv-2" target="NFfXi9lb8GUTKZxlFxMv-8" edge="1">
          <mxGeometry relative="1" as="geometry">
            <Array as="points">
              <mxPoint x="205" y="180"/>
              <mxPoint x="365" y="180"/>
            </Array>
          </mxGeometry>
        </mxCell>
        <mxCell id="NFfXi9lb8GUTKZxlFxMv-2" value="Data" style="rounded=1;whiteSpace=wrap;html=1;" parent="NFfXi9lb8GUTKZxlFxMv-1" vertex="1">
          <mxGeometry x="160" y="80" width="90" height="40" as="geometry"/>
        </mxCell>
        <mxCell id="t-wNm0rdj1KhYYdMgisc-1" style="edgeStyle=orthogonalEdgeStyle;rounded=0;orthogonalLoop=1;jettySize=auto;html=1;entryX=0.5;entryY=0;entryDx=0;entryDy=0;" parent="NFfXi9lb8GUTKZxlFxMv-1" source="NFfXi9lb8GUTKZxlFxMv-3" target="NFfXi9lb8GUTKZxlFxMv-8" edge="1">
          <mxGeometry relative="1" as="geometry"/>
        </mxCell>
        <mxCell id="NFfXi9lb8GUTKZxlFxMv-3" value="&lt;span style=&quot;white-space: normal&quot;&gt;Data&lt;/span&gt;" style="rounded=1;whiteSpace=wrap;html=1;" parent="NFfXi9lb8GUTKZxlFxMv-1" vertex="1">
          <mxGeometry x="320" y="80" width="90" height="40" as="geometry"/>
        </mxCell>
        <mxCell id="t-wNm0rdj1KhYYdMgisc-2" style="edgeStyle=orthogonalEdgeStyle;rounded=0;orthogonalLoop=1;jettySize=auto;html=1;entryX=0.5;entryY=0;entryDx=0;entryDy=0;" parent="NFfXi9lb8GUTKZxlFxMv-1" source="NFfXi9lb8GUTKZxlFxMv-4" target="NFfXi9lb8GUTKZxlFxMv-8" edge="1">
          <mxGeometry relative="1" as="geometry">
            <Array as="points">
              <mxPoint x="520" y="180"/>
              <mxPoint x="365" y="180"/>
            </Array>
          </mxGeometry>
        </mxCell>
        <mxCell id="NFfXi9lb8GUTKZxlFxMv-4" value="&lt;span style=&quot;white-space: normal&quot;&gt;Data&lt;/span&gt;" style="rounded=1;whiteSpace=wrap;html=1;" parent="NFfXi9lb8GUTKZxlFxMv-1" vertex="1">
          <mxGeometry x="480" y="80" width="80" height="40" as="geometry"/>
        </mxCell>
        <mxCell id="NFfXi9lb8GUTKZxlFxMv-7" value="Hdfs" style="text;html=1;align=center;verticalAlign=middle;resizable=0;points=[];autosize=1;" parent="NFfXi9lb8GUTKZxlFxMv-1" vertex="1">
          <mxGeometry x="111" y="60" width="40" height="20" as="geometry"/>
        </mxCell>
        <mxCell id="2OV-tlTTXsAzTFODPQlG-1" style="edgeStyle=orthogonalEdgeStyle;rounded=0;orthogonalLoop=1;jettySize=auto;html=1;entryX=0.5;entryY=0;entryDx=0;entryDy=0;" parent="NFfXi9lb8GUTKZxlFxMv-1" source="NFfXi9lb8GUTKZxlFxMv-8" target="2OV-tlTTXsAzTFODPQlG-0" edge="1">
          <mxGeometry relative="1" as="geometry"/>
        </mxCell>
        <mxCell id="NFfXi9lb8GUTKZxlFxMv-8" value="获取所有需要处理的表名(Impala)" style="rounded=1;whiteSpace=wrap;html=1;" parent="NFfXi9lb8GUTKZxlFxMv-1" vertex="1">
          <mxGeometry x="252.5" y="230" width="225" height="50" as="geometry"/>
        </mxCell>
        <mxCell id="NFfXi9lb8GUTKZxlFxMv-17" value="" style="edgeStyle=orthogonalEdgeStyle;rounded=0;orthogonalLoop=1;jettySize=auto;html=1;" parent="NFfXi9lb8GUTKZxlFxMv-1" source="NFfXi9lb8GUTKZxlFxMv-9" target="NFfXi9lb8GUTKZxlFxMv-16" edge="1">
          <mxGeometry relative="1" as="geometry"/>
        </mxCell>
        <mxCell id="NFfXi9lb8GUTKZxlFxMv-9" value="处理完的数据转存外部表结构与数据一致(Hive)" style="rounded=1;whiteSpace=wrap;html=1;" parent="NFfXi9lb8GUTKZxlFxMv-1" vertex="1">
          <mxGeometry x="270" y="420" width="190" height="60" as="geometry"/>
        </mxCell>
        <mxCell id="NFfXi9lb8GUTKZxlFxMv-19" style="edgeStyle=orthogonalEdgeStyle;rounded=0;orthogonalLoop=1;jettySize=auto;html=1;entryX=0.5;entryY=0;entryDx=0;entryDy=0;" parent="NFfXi9lb8GUTKZxlFxMv-1" source="NFfXi9lb8GUTKZxlFxMv-16" target="NFfXi9lb8GUTKZxlFxMv-18" edge="1">
          <mxGeometry relative="1" as="geometry"/>
        </mxCell>
        <mxCell id="NFfXi9lb8GUTKZxlFxMv-16" value="外部表数据全量导出(Sqoop)" style="rounded=1;whiteSpace=wrap;html=1;" parent="NFfXi9lb8GUTKZxlFxMv-1" vertex="1">
          <mxGeometry x="275" y="520" width="180" height="60" as="geometry"/>
        </mxCell>
        <mxCell id="NFfXi9lb8GUTKZxlFxMv-12" value="Oozie Workflow" style="text;html=1;align=center;verticalAlign=middle;resizable=0;points=[];autosize=1;" parent="NFfXi9lb8GUTKZxlFxMv-1" vertex="1">
          <mxGeometry x="170" y="210" width="100" height="20" as="geometry"/>
        </mxCell>
        <mxCell id="NFfXi9lb8GUTKZxlFxMv-18" value="Oracle" style="shape=cylinder;whiteSpace=wrap;html=1;boundedLbl=1;backgroundOutline=1;rounded=1;" parent="NFfXi9lb8GUTKZxlFxMv-1" vertex="1">
          <mxGeometry x="335" y="640" width="60" height="80" as="geometry"/>
        </mxCell>
        <mxCell id="2OV-tlTTXsAzTFODPQlG-2" style="edgeStyle=orthogonalEdgeStyle;rounded=0;orthogonalLoop=1;jettySize=auto;html=1;entryX=0.5;entryY=0;entryDx=0;entryDy=0;" parent="NFfXi9lb8GUTKZxlFxMv-1" source="2OV-tlTTXsAzTFODPQlG-0" target="NFfXi9lb8GUTKZxlFxMv-9" edge="1">
          <mxGeometry relative="1" as="geometry"/>
        </mxCell>
        <mxCell id="2OV-tlTTXsAzTFODPQlG-0" value="将满足条件的表按照数据库的结构进行逻辑处理和结构转换(Hive)" style="rounded=1;whiteSpace=wrap;html=1;" parent="NFfXi9lb8GUTKZxlFxMv-1" vertex="1">
          <mxGeometry x="227.5" y="320" width="275" height="60" as="geometry"/>
        </mxCell>
      </root>
    </mxGraphModel>
  </diagram>
  <diagram name="Page-3" id="jliJn8GCQ88-O04pnrHA">
    <mxGraphModel dx="782" dy="437" grid="1" gridSize="10" guides="1" tooltips="1" connect="1" arrows="1" fold="1" page="1" pageScale="1" pageWidth="827" pageHeight="1169" math="0" shadow="0">
      <root>
        <mxCell id="6Xe4s3eG2ZmPTmgurJJL-0"/>
        <mxCell id="6Xe4s3eG2ZmPTmgurJJL-1" parent="6Xe4s3eG2ZmPTmgurJJL-0"/>
        <mxCell id="-56T66FRgu2Fhlo481WM-9" value="" style="rounded=1;whiteSpace=wrap;html=1;dashed=1;" parent="6Xe4s3eG2ZmPTmgurJJL-1" vertex="1">
          <mxGeometry x="190" y="180" width="340" height="350" as="geometry"/>
        </mxCell>
        <mxCell id="c9c-MkFSL9wJ24FFBavB-0" value="" style="rounded=1;whiteSpace=wrap;html=1;dashed=1;" parent="6Xe4s3eG2ZmPTmgurJJL-1" vertex="1">
          <mxGeometry x="100" y="50" width="550" height="90" as="geometry"/>
        </mxCell>
        <mxCell id="-56T66FRgu2Fhlo481WM-13" style="edgeStyle=orthogonalEdgeStyle;rounded=0;orthogonalLoop=1;jettySize=auto;html=1;entryX=0.5;entryY=0;entryDx=0;entryDy=0;" parent="6Xe4s3eG2ZmPTmgurJJL-1" source="c9c-MkFSL9wJ24FFBavB-1" target="-56T66FRgu2Fhlo481WM-0" edge="1">
          <mxGeometry relative="1" as="geometry">
            <Array as="points">
              <mxPoint x="205" y="160"/>
              <mxPoint x="365" y="160"/>
            </Array>
          </mxGeometry>
        </mxCell>
        <mxCell id="c9c-MkFSL9wJ24FFBavB-1" value="Data" style="rounded=1;whiteSpace=wrap;html=1;" parent="6Xe4s3eG2ZmPTmgurJJL-1" vertex="1">
          <mxGeometry x="160" y="80" width="90" height="40" as="geometry"/>
        </mxCell>
        <mxCell id="-56T66FRgu2Fhlo481WM-14" style="edgeStyle=orthogonalEdgeStyle;rounded=0;orthogonalLoop=1;jettySize=auto;html=1;entryX=0.5;entryY=0;entryDx=0;entryDy=0;" parent="6Xe4s3eG2ZmPTmgurJJL-1" source="c9c-MkFSL9wJ24FFBavB-2" target="-56T66FRgu2Fhlo481WM-0" edge="1">
          <mxGeometry relative="1" as="geometry"/>
        </mxCell>
        <mxCell id="c9c-MkFSL9wJ24FFBavB-2" value="&lt;span style=&quot;white-space: normal&quot;&gt;Data&lt;/span&gt;" style="rounded=1;whiteSpace=wrap;html=1;" parent="6Xe4s3eG2ZmPTmgurJJL-1" vertex="1">
          <mxGeometry x="320" y="80" width="90" height="40" as="geometry"/>
        </mxCell>
        <mxCell id="-56T66FRgu2Fhlo481WM-15" style="edgeStyle=orthogonalEdgeStyle;rounded=0;orthogonalLoop=1;jettySize=auto;html=1;entryX=0.5;entryY=0;entryDx=0;entryDy=0;" parent="6Xe4s3eG2ZmPTmgurJJL-1" source="c9c-MkFSL9wJ24FFBavB-3" target="-56T66FRgu2Fhlo481WM-0" edge="1">
          <mxGeometry relative="1" as="geometry">
            <Array as="points">
              <mxPoint x="520" y="160"/>
              <mxPoint x="365" y="160"/>
            </Array>
          </mxGeometry>
        </mxCell>
        <mxCell id="c9c-MkFSL9wJ24FFBavB-3" value="&lt;span style=&quot;white-space: normal&quot;&gt;Data&lt;/span&gt;" style="rounded=1;whiteSpace=wrap;html=1;" parent="6Xe4s3eG2ZmPTmgurJJL-1" vertex="1">
          <mxGeometry x="480" y="80" width="80" height="40" as="geometry"/>
        </mxCell>
        <mxCell id="c9c-MkFSL9wJ24FFBavB-4" value="Hdfs" style="text;html=1;align=center;verticalAlign=middle;resizable=0;points=[];autosize=1;" parent="6Xe4s3eG2ZmPTmgurJJL-1" vertex="1">
          <mxGeometry x="111" y="60" width="40" height="20" as="geometry"/>
        </mxCell>
        <mxCell id="-56T66FRgu2Fhlo481WM-3" value="" style="edgeStyle=orthogonalEdgeStyle;rounded=0;orthogonalLoop=1;jettySize=auto;html=1;" parent="6Xe4s3eG2ZmPTmgurJJL-1" source="-56T66FRgu2Fhlo481WM-0" target="-56T66FRgu2Fhlo481WM-2" edge="1">
          <mxGeometry relative="1" as="geometry"/>
        </mxCell>
        <mxCell id="-56T66FRgu2Fhlo481WM-0" value="获取Impala driver连接" style="rounded=1;whiteSpace=wrap;html=1;" parent="6Xe4s3eG2ZmPTmgurJJL-1" vertex="1">
          <mxGeometry x="292.5" y="210" width="145" height="40" as="geometry"/>
        </mxCell>
        <mxCell id="-56T66FRgu2Fhlo481WM-5" value="" style="edgeStyle=orthogonalEdgeStyle;rounded=0;orthogonalLoop=1;jettySize=auto;html=1;" parent="6Xe4s3eG2ZmPTmgurJJL-1" source="-56T66FRgu2Fhlo481WM-2" target="-56T66FRgu2Fhlo481WM-4" edge="1">
          <mxGeometry relative="1" as="geometry"/>
        </mxCell>
        <mxCell id="-56T66FRgu2Fhlo481WM-2" value="获得满足条件的表名" style="rounded=1;whiteSpace=wrap;html=1;" parent="6Xe4s3eG2ZmPTmgurJJL-1" vertex="1">
          <mxGeometry x="292.5" y="270" width="145" height="40" as="geometry"/>
        </mxCell>
        <mxCell id="-56T66FRgu2Fhlo481WM-6" style="edgeStyle=orthogonalEdgeStyle;rounded=0;orthogonalLoop=1;jettySize=auto;html=1;entryX=0.5;entryY=0;entryDx=0;entryDy=0;" parent="6Xe4s3eG2ZmPTmgurJJL-1" source="-56T66FRgu2Fhlo481WM-4" target="-56T66FRgu2Fhlo481WM-1" edge="1">
          <mxGeometry relative="1" as="geometry"/>
        </mxCell>
        <mxCell id="-56T66FRgu2Fhlo481WM-4" value="从每张表里获取数据并处理" style="rounded=1;whiteSpace=wrap;html=1;" parent="6Xe4s3eG2ZmPTmgurJJL-1" vertex="1">
          <mxGeometry x="261.25" y="340" width="207.5" height="40" as="geometry"/>
        </mxCell>
        <mxCell id="-56T66FRgu2Fhlo481WM-8" value="" style="edgeStyle=orthogonalEdgeStyle;rounded=0;orthogonalLoop=1;jettySize=auto;html=1;" parent="6Xe4s3eG2ZmPTmgurJJL-1" source="-56T66FRgu2Fhlo481WM-1" target="-56T66FRgu2Fhlo481WM-7" edge="1">
          <mxGeometry relative="1" as="geometry"/>
        </mxCell>
        <mxCell id="-56T66FRgu2Fhlo481WM-1" value="获取Oracle driver连接" style="rounded=1;whiteSpace=wrap;html=1;" parent="6Xe4s3eG2ZmPTmgurJJL-1" vertex="1">
          <mxGeometry x="292.5" y="410" width="145" height="40" as="geometry"/>
        </mxCell>
        <mxCell id="-56T66FRgu2Fhlo481WM-11" style="edgeStyle=orthogonalEdgeStyle;rounded=0;orthogonalLoop=1;jettySize=auto;html=1;entryX=0.5;entryY=0;entryDx=0;entryDy=0;" parent="6Xe4s3eG2ZmPTmgurJJL-1" source="-56T66FRgu2Fhlo481WM-7" target="-56T66FRgu2Fhlo481WM-10" edge="1">
          <mxGeometry relative="1" as="geometry"/>
        </mxCell>
        <mxCell id="-56T66FRgu2Fhlo481WM-7" value="将处理好的数据插入数据库(batch)" style="rounded=1;whiteSpace=wrap;html=1;" parent="6Xe4s3eG2ZmPTmgurJJL-1" vertex="1">
          <mxGeometry x="292.5" y="470" width="145" height="40" as="geometry"/>
        </mxCell>
        <mxCell id="-56T66FRgu2Fhlo481WM-10" value="Oracle&lt;br&gt;" style="shape=cylinder;whiteSpace=wrap;html=1;boundedLbl=1;backgroundOutline=1;rounded=1;" parent="6Xe4s3eG2ZmPTmgurJJL-1" vertex="1">
          <mxGeometry x="335" y="570" width="60" height="80" as="geometry"/>
        </mxCell>
        <mxCell id="-56T66FRgu2Fhlo481WM-12" value="Java" style="text;html=1;align=center;verticalAlign=middle;resizable=0;points=[];autosize=1;" parent="6Xe4s3eG2ZmPTmgurJJL-1" vertex="1">
          <mxGeometry x="210" y="200" width="40" height="20" as="geometry"/>
        </mxCell>
      </root>
    </mxGraphModel>
  </diagram>
  <diagram name="Page-4" id="6i1ETwjE1OiW0ldrGe0C">
    <mxGraphModel dx="2391" dy="874" grid="1" gridSize="10" guides="1" tooltips="1" connect="1" arrows="1" fold="1" page="1" pageScale="1" pageWidth="827" pageHeight="1169" math="0" shadow="0">
      <root>
        <mxCell id="AeJgDYG7hGIS2vElNsl3-0"/>
        <mxCell id="AeJgDYG7hGIS2vElNsl3-1" parent="AeJgDYG7hGIS2vElNsl3-0"/>
        <mxCell id="AeJgDYG7hGIS2vElNsl3-6" value="&lt;p class=&quot;MsoNormal&quot;&gt;&lt;span style=&quot;font-family: &amp;#34;calibri&amp;#34; ; font-size: 10.5000pt&quot;&gt;CREATED_TIME&lt;/span&gt;&lt;/p&gt;" style="rounded=0;whiteSpace=wrap;html=1;" parent="AeJgDYG7hGIS2vElNsl3-1" vertex="1">
          <mxGeometry x="570" y="540" width="120" height="30" as="geometry"/>
        </mxCell>
        <mxCell id="AeJgDYG7hGIS2vElNsl3-23" value="&lt;p class=&quot;MsoNormal&quot;&gt;&lt;span style=&quot;font-family: &amp;#34;calibri&amp;#34; ; font-size: 10.5000pt&quot;&gt;UPDATED_BY&lt;/span&gt;&lt;/p&gt;" style="rounded=0;whiteSpace=wrap;html=1;" parent="AeJgDYG7hGIS2vElNsl3-1" vertex="1">
          <mxGeometry x="570" y="570" width="120" height="30" as="geometry"/>
        </mxCell>
        <mxCell id="AeJgDYG7hGIS2vElNsl3-24" value="&lt;p class=&quot;MsoNormal&quot;&gt;&lt;span style=&quot;font-family: &amp;#34;calibri&amp;#34; ; font-size: 10.5000pt&quot;&gt;UPDATED_TIME&lt;/span&gt;&lt;/p&gt;" style="rounded=0;whiteSpace=wrap;html=1;" parent="AeJgDYG7hGIS2vElNsl3-1" vertex="1">
          <mxGeometry x="570" y="600" width="120" height="30" as="geometry"/>
        </mxCell>
        <mxCell id="AeJgDYG7hGIS2vElNsl3-97" style="edgeStyle=orthogonalEdgeStyle;curved=1;rounded=0;orthogonalLoop=1;jettySize=auto;html=1;entryX=0;entryY=0.5;entryDx=0;entryDy=0;" parent="AeJgDYG7hGIS2vElNsl3-1" source="AeJgDYG7hGIS2vElNsl3-25" target="AeJgDYG7hGIS2vElNsl3-96" edge="1">
          <mxGeometry relative="1" as="geometry"/>
        </mxCell>
        <mxCell id="AeJgDYG7hGIS2vElNsl3-157" style="edgeStyle=orthogonalEdgeStyle;curved=1;rounded=0;orthogonalLoop=1;jettySize=auto;html=1;entryX=1;entryY=0.5;entryDx=0;entryDy=0;" parent="AeJgDYG7hGIS2vElNsl3-1" source="AeJgDYG7hGIS2vElNsl3-25" target="AeJgDYG7hGIS2vElNsl3-129" edge="1">
          <mxGeometry relative="1" as="geometry"/>
        </mxCell>
        <mxCell id="AeJgDYG7hGIS2vElNsl3-25" value="&lt;p class=&quot;MsoNormal&quot;&gt;&lt;span style=&quot;font-family: &amp;#34;calibri&amp;#34; ; font-size: 10.5000pt&quot;&gt;TS&lt;/span&gt;&lt;/p&gt;" style="rounded=0;whiteSpace=wrap;html=1;fillColor=#dae8fc;strokeColor=#000000;" parent="AeJgDYG7hGIS2vElNsl3-1" vertex="1">
          <mxGeometry x="60" y="170" width="120" height="30" as="geometry"/>
        </mxCell>
        <mxCell id="AeJgDYG7hGIS2vElNsl3-134" style="edgeStyle=orthogonalEdgeStyle;curved=1;rounded=0;orthogonalLoop=1;jettySize=auto;html=1;entryX=1;entryY=0.5;entryDx=0;entryDy=0;" parent="AeJgDYG7hGIS2vElNsl3-1" source="AeJgDYG7hGIS2vElNsl3-26" target="AeJgDYG7hGIS2vElNsl3-130" edge="1">
          <mxGeometry relative="1" as="geometry"/>
        </mxCell>
        <mxCell id="AeJgDYG7hGIS2vElNsl3-26" value="&lt;p class=&quot;MsoNormal&quot;&gt;&lt;span style=&quot;font-family: &amp;#34;calibri&amp;#34; ; font-size: 10.5000pt&quot;&gt;ASK_OPEN&lt;/span&gt;&lt;/p&gt;" style="rounded=0;whiteSpace=wrap;html=1;fillColor=#d5e8d4;strokeColor=#000000;" parent="AeJgDYG7hGIS2vElNsl3-1" vertex="1">
          <mxGeometry x="60" y="200" width="120" height="30" as="geometry"/>
        </mxCell>
        <mxCell id="AeJgDYG7hGIS2vElNsl3-136" style="edgeStyle=orthogonalEdgeStyle;curved=1;rounded=0;orthogonalLoop=1;jettySize=auto;html=1;entryX=1;entryY=0.25;entryDx=0;entryDy=0;" parent="AeJgDYG7hGIS2vElNsl3-1" source="AeJgDYG7hGIS2vElNsl3-27" target="AeJgDYG7hGIS2vElNsl3-131" edge="1">
          <mxGeometry relative="1" as="geometry"/>
        </mxCell>
        <mxCell id="AeJgDYG7hGIS2vElNsl3-27" value="&lt;p class=&quot;MsoNormal&quot;&gt;&lt;span style=&quot;font-family: &amp;#34;calibri&amp;#34; ; font-size: 10.5000pt&quot;&gt;ASK_HIGH&lt;/span&gt;&lt;/p&gt;" style="rounded=0;whiteSpace=wrap;html=1;fillColor=#ffe6cc;strokeColor=#000000;" parent="AeJgDYG7hGIS2vElNsl3-1" vertex="1">
          <mxGeometry x="60" y="260" width="120" height="30" as="geometry"/>
        </mxCell>
        <mxCell id="AeJgDYG7hGIS2vElNsl3-139" style="edgeStyle=orthogonalEdgeStyle;curved=1;rounded=0;orthogonalLoop=1;jettySize=auto;html=1;entryX=1;entryY=0.5;entryDx=0;entryDy=0;" parent="AeJgDYG7hGIS2vElNsl3-1" source="AeJgDYG7hGIS2vElNsl3-28" target="AeJgDYG7hGIS2vElNsl3-132" edge="1">
          <mxGeometry relative="1" as="geometry"/>
        </mxCell>
        <mxCell id="AeJgDYG7hGIS2vElNsl3-28" value="&lt;p class=&quot;MsoNormal&quot;&gt;&lt;span style=&quot;font-family: &amp;#34;calibri&amp;#34; ; font-size: 10.5000pt&quot;&gt;ASK_LOW&lt;/span&gt;&lt;/p&gt;" style="rounded=0;whiteSpace=wrap;html=1;fillColor=#fff2cc;strokeColor=#000000;" parent="AeJgDYG7hGIS2vElNsl3-1" vertex="1">
          <mxGeometry x="60" y="320" width="120" height="30" as="geometry"/>
        </mxCell>
        <mxCell id="AeJgDYG7hGIS2vElNsl3-141" style="edgeStyle=orthogonalEdgeStyle;curved=1;rounded=0;orthogonalLoop=1;jettySize=auto;html=1;entryX=1;entryY=0.5;entryDx=0;entryDy=0;" parent="AeJgDYG7hGIS2vElNsl3-1" source="AeJgDYG7hGIS2vElNsl3-29" target="AeJgDYG7hGIS2vElNsl3-133" edge="1">
          <mxGeometry relative="1" as="geometry"/>
        </mxCell>
        <mxCell id="AeJgDYG7hGIS2vElNsl3-29" value="&lt;p class=&quot;MsoNormal&quot;&gt;&lt;span style=&quot;font-family: &amp;#34;calibri&amp;#34; ; font-size: 10.5000pt&quot;&gt;ASK_CLOSE&lt;/span&gt;&lt;/p&gt;" style="rounded=0;whiteSpace=wrap;html=1;fillColor=#f8cecc;strokeColor=#000000;" parent="AeJgDYG7hGIS2vElNsl3-1" vertex="1">
          <mxGeometry x="60" y="380" width="120" height="30" as="geometry"/>
        </mxCell>
        <mxCell id="AeJgDYG7hGIS2vElNsl3-153" style="edgeStyle=orthogonalEdgeStyle;curved=1;rounded=0;orthogonalLoop=1;jettySize=auto;html=1;entryX=1;entryY=0.5;entryDx=0;entryDy=0;" parent="AeJgDYG7hGIS2vElNsl3-1" source="AeJgDYG7hGIS2vElNsl3-30" target="AeJgDYG7hGIS2vElNsl3-152" edge="1">
          <mxGeometry relative="1" as="geometry"/>
        </mxCell>
        <mxCell id="AeJgDYG7hGIS2vElNsl3-30" value="&lt;p class=&quot;MsoNormal&quot;&gt;&lt;span style=&quot;font-family: &amp;#34;calibri&amp;#34; ; font-size: 10.5000pt&quot;&gt;ASK_VOLUME&lt;/span&gt;&lt;/p&gt;" style="rounded=0;whiteSpace=wrap;html=1;" parent="AeJgDYG7hGIS2vElNsl3-1" vertex="1">
          <mxGeometry x="60" y="440" width="120" height="30" as="geometry"/>
        </mxCell>
        <mxCell id="AeJgDYG7hGIS2vElNsl3-135" style="edgeStyle=orthogonalEdgeStyle;curved=1;rounded=0;orthogonalLoop=1;jettySize=auto;html=1;entryX=1;entryY=0.5;entryDx=0;entryDy=0;" parent="AeJgDYG7hGIS2vElNsl3-1" source="AeJgDYG7hGIS2vElNsl3-31" target="AeJgDYG7hGIS2vElNsl3-130" edge="1">
          <mxGeometry relative="1" as="geometry"/>
        </mxCell>
        <mxCell id="AeJgDYG7hGIS2vElNsl3-31" value="&lt;p class=&quot;MsoNormal&quot;&gt;&lt;span style=&quot;font-family: &amp;#34;calibri&amp;#34; ; font-size: 10.5000pt&quot;&gt;BID_OPEN&lt;/span&gt;&lt;/p&gt;" style="rounded=0;whiteSpace=wrap;html=1;fillColor=#d5e8d4;strokeColor=#000000;" parent="AeJgDYG7hGIS2vElNsl3-1" vertex="1">
          <mxGeometry x="60" y="230" width="120" height="30" as="geometry"/>
        </mxCell>
        <mxCell id="AeJgDYG7hGIS2vElNsl3-138" style="edgeStyle=orthogonalEdgeStyle;curved=1;rounded=0;orthogonalLoop=1;jettySize=auto;html=1;entryX=1;entryY=0.5;entryDx=0;entryDy=0;" parent="AeJgDYG7hGIS2vElNsl3-1" source="AeJgDYG7hGIS2vElNsl3-32" target="AeJgDYG7hGIS2vElNsl3-131" edge="1">
          <mxGeometry relative="1" as="geometry"/>
        </mxCell>
        <mxCell id="AeJgDYG7hGIS2vElNsl3-32" value="&lt;p class=&quot;MsoNormal&quot;&gt;&lt;span style=&quot;font-family: &amp;#34;calibri&amp;#34; ; font-size: 10.5000pt&quot;&gt;BID_HIGH&lt;/span&gt;&lt;/p&gt;" style="rounded=0;whiteSpace=wrap;html=1;fillColor=#ffe6cc;strokeColor=#000000;" parent="AeJgDYG7hGIS2vElNsl3-1" vertex="1">
          <mxGeometry x="60" y="290" width="120" height="30" as="geometry"/>
        </mxCell>
        <mxCell id="AeJgDYG7hGIS2vElNsl3-140" style="edgeStyle=orthogonalEdgeStyle;curved=1;rounded=0;orthogonalLoop=1;jettySize=auto;html=1;entryX=1;entryY=0.5;entryDx=0;entryDy=0;" parent="AeJgDYG7hGIS2vElNsl3-1" source="AeJgDYG7hGIS2vElNsl3-33" target="AeJgDYG7hGIS2vElNsl3-132" edge="1">
          <mxGeometry relative="1" as="geometry"/>
        </mxCell>
        <mxCell id="AeJgDYG7hGIS2vElNsl3-33" value="&lt;p class=&quot;MsoNormal&quot;&gt;&lt;span style=&quot;font-family: &amp;#34;calibri&amp;#34; ; font-size: 10.5000pt&quot;&gt;BID_LOW&lt;/span&gt;&lt;/p&gt;" style="rounded=0;whiteSpace=wrap;html=1;fillColor=#fff2cc;strokeColor=#000000;" parent="AeJgDYG7hGIS2vElNsl3-1" vertex="1">
          <mxGeometry x="60" y="350" width="120" height="30" as="geometry"/>
        </mxCell>
        <mxCell id="AeJgDYG7hGIS2vElNsl3-142" style="edgeStyle=orthogonalEdgeStyle;curved=1;rounded=0;orthogonalLoop=1;jettySize=auto;html=1;entryX=1;entryY=0.5;entryDx=0;entryDy=0;" parent="AeJgDYG7hGIS2vElNsl3-1" source="AeJgDYG7hGIS2vElNsl3-34" target="AeJgDYG7hGIS2vElNsl3-133" edge="1">
          <mxGeometry relative="1" as="geometry"/>
        </mxCell>
        <mxCell id="AeJgDYG7hGIS2vElNsl3-34" value="&lt;p class=&quot;MsoNormal&quot;&gt;&lt;span style=&quot;font-family: &amp;#34;calibri&amp;#34; ; font-size: 10.5000pt&quot;&gt;BID_CLOSE&lt;/span&gt;&lt;/p&gt;" style="rounded=0;whiteSpace=wrap;html=1;fillColor=#f8cecc;strokeColor=#000000;" parent="AeJgDYG7hGIS2vElNsl3-1" vertex="1">
          <mxGeometry x="60" y="410" width="120" height="30" as="geometry"/>
        </mxCell>
        <mxCell id="AeJgDYG7hGIS2vElNsl3-154" style="edgeStyle=orthogonalEdgeStyle;curved=1;rounded=0;orthogonalLoop=1;jettySize=auto;html=1;entryX=1;entryY=0.5;entryDx=0;entryDy=0;" parent="AeJgDYG7hGIS2vElNsl3-1" source="AeJgDYG7hGIS2vElNsl3-35" target="AeJgDYG7hGIS2vElNsl3-152" edge="1">
          <mxGeometry relative="1" as="geometry"/>
        </mxCell>
        <mxCell id="AeJgDYG7hGIS2vElNsl3-35" value="&lt;p class=&quot;MsoNormal&quot;&gt;&lt;span style=&quot;font-family: &amp;#34;calibri&amp;#34; ; font-size: 10.5000pt&quot;&gt;BID_VOLUME&lt;/span&gt;&lt;/p&gt;" style="rounded=0;whiteSpace=wrap;html=1;" parent="AeJgDYG7hGIS2vElNsl3-1" vertex="1">
          <mxGeometry x="60" y="470" width="120" height="30" as="geometry"/>
        </mxCell>
        <mxCell id="AeJgDYG7hGIS2vElNsl3-147" style="edgeStyle=orthogonalEdgeStyle;curved=1;rounded=0;orthogonalLoop=1;jettySize=auto;html=1;entryX=0;entryY=0.5;entryDx=0;entryDy=0;" parent="AeJgDYG7hGIS2vElNsl3-1" source="AeJgDYG7hGIS2vElNsl3-36" target="AeJgDYG7hGIS2vElNsl3-52" edge="1">
          <mxGeometry relative="1" as="geometry"/>
        </mxCell>
        <mxCell id="AeJgDYG7hGIS2vElNsl3-36" value="&lt;p class=&quot;MsoNormal&quot;&gt;&lt;span style=&quot;font-family: &amp;#34;calibri&amp;#34; ; font-size: 10.5000pt&quot;&gt;TRADE_OPEN&lt;/span&gt;&lt;/p&gt;" style="rounded=0;whiteSpace=wrap;html=1;fillColor=#60a917;strokeColor=#000000;fontColor=#ffffff;" parent="AeJgDYG7hGIS2vElNsl3-1" vertex="1">
          <mxGeometry x="60" y="500" width="120" height="30" as="geometry"/>
        </mxCell>
        <mxCell id="AeJgDYG7hGIS2vElNsl3-148" style="edgeStyle=orthogonalEdgeStyle;curved=1;rounded=0;orthogonalLoop=1;jettySize=auto;html=1;entryX=0;entryY=0.5;entryDx=0;entryDy=0;" parent="AeJgDYG7hGIS2vElNsl3-1" source="AeJgDYG7hGIS2vElNsl3-37" target="AeJgDYG7hGIS2vElNsl3-53" edge="1">
          <mxGeometry relative="1" as="geometry"/>
        </mxCell>
        <mxCell id="AeJgDYG7hGIS2vElNsl3-37" value="&lt;p class=&quot;MsoNormal&quot;&gt;&lt;span style=&quot;font-family: &amp;#34;calibri&amp;#34; ; font-size: 10.5000pt&quot;&gt;TRADE_HIGH&lt;/span&gt;&lt;/p&gt;" style="rounded=0;whiteSpace=wrap;html=1;fillColor=#008a00;strokeColor=#000000;fontColor=#ffffff;" parent="AeJgDYG7hGIS2vElNsl3-1" vertex="1">
          <mxGeometry x="60" y="530" width="120" height="30" as="geometry"/>
        </mxCell>
        <mxCell id="AeJgDYG7hGIS2vElNsl3-149" style="edgeStyle=orthogonalEdgeStyle;curved=1;rounded=0;orthogonalLoop=1;jettySize=auto;html=1;entryX=0;entryY=0.5;entryDx=0;entryDy=0;" parent="AeJgDYG7hGIS2vElNsl3-1" source="AeJgDYG7hGIS2vElNsl3-38" target="AeJgDYG7hGIS2vElNsl3-54" edge="1">
          <mxGeometry relative="1" as="geometry"/>
        </mxCell>
        <mxCell id="AeJgDYG7hGIS2vElNsl3-38" value="&lt;p class=&quot;MsoNormal&quot;&gt;&lt;span style=&quot;font-family: &amp;#34;calibri&amp;#34; ; font-size: 10.5000pt&quot;&gt;TRADE_LOW&lt;/span&gt;&lt;/p&gt;" style="rounded=0;whiteSpace=wrap;html=1;fillColor=#1ba1e2;strokeColor=#000000;fontColor=#ffffff;" parent="AeJgDYG7hGIS2vElNsl3-1" vertex="1">
          <mxGeometry x="60" y="560" width="120" height="30" as="geometry"/>
        </mxCell>
        <mxCell id="AeJgDYG7hGIS2vElNsl3-150" style="edgeStyle=orthogonalEdgeStyle;curved=1;rounded=0;orthogonalLoop=1;jettySize=auto;html=1;entryX=0;entryY=0.5;entryDx=0;entryDy=0;" parent="AeJgDYG7hGIS2vElNsl3-1" source="AeJgDYG7hGIS2vElNsl3-39" target="AeJgDYG7hGIS2vElNsl3-43" edge="1">
          <mxGeometry relative="1" as="geometry"/>
        </mxCell>
        <mxCell id="AeJgDYG7hGIS2vElNsl3-39" value="&lt;p class=&quot;MsoNormal&quot;&gt;&lt;span style=&quot;font-family: &amp;#34;calibri&amp;#34; ; font-size: 10.5000pt&quot;&gt;TRADE_CLOSE&lt;/span&gt;&lt;/p&gt;" style="rounded=0;whiteSpace=wrap;html=1;fillColor=#0050ef;strokeColor=#000000;fontColor=#ffffff;" parent="AeJgDYG7hGIS2vElNsl3-1" vertex="1">
          <mxGeometry x="60" y="590" width="120" height="30" as="geometry"/>
        </mxCell>
        <mxCell id="AeJgDYG7hGIS2vElNsl3-151" style="edgeStyle=orthogonalEdgeStyle;curved=1;rounded=0;orthogonalLoop=1;jettySize=auto;html=1;entryX=0;entryY=0.5;entryDx=0;entryDy=0;" parent="AeJgDYG7hGIS2vElNsl3-1" source="AeJgDYG7hGIS2vElNsl3-40" target="AeJgDYG7hGIS2vElNsl3-44" edge="1">
          <mxGeometry relative="1" as="geometry"/>
        </mxCell>
        <mxCell id="AeJgDYG7hGIS2vElNsl3-40" value="&lt;p class=&quot;MsoNormal&quot;&gt;&lt;span style=&quot;font-family: &amp;#34;calibri&amp;#34; ; font-size: 10.5000pt&quot;&gt;TRADE_VOLUME&lt;/span&gt;&lt;/p&gt;" style="rounded=0;whiteSpace=wrap;html=1;fillColor=#6a00ff;strokeColor=#000000;fontColor=#ffffff;" parent="AeJgDYG7hGIS2vElNsl3-1" vertex="1">
          <mxGeometry x="60" y="620" width="120" height="30" as="geometry"/>
        </mxCell>
        <mxCell id="AeJgDYG7hGIS2vElNsl3-41" value="&lt;p class=&quot;MsoNormal&quot;&gt;&lt;span style=&quot;font-family: &amp;#34;calibri&amp;#34; ; font-size: 10.5000pt&quot;&gt;SYMBOL&lt;/span&gt;&lt;/p&gt;" style="rounded=0;whiteSpace=wrap;html=1;" parent="AeJgDYG7hGIS2vElNsl3-1" vertex="1">
          <mxGeometry x="60" y="650" width="120" height="30" as="geometry"/>
        </mxCell>
        <mxCell id="AeJgDYG7hGIS2vElNsl3-42" value="&lt;p class=&quot;MsoNormal&quot;&gt;&lt;span style=&quot;font-family: &amp;#34;calibri&amp;#34; ; font-size: 10.5000pt&quot;&gt;YEAR&lt;/span&gt;&lt;/p&gt;" style="rounded=0;whiteSpace=wrap;html=1;" parent="AeJgDYG7hGIS2vElNsl3-1" vertex="1">
          <mxGeometry x="60" y="680" width="120" height="30" as="geometry"/>
        </mxCell>
        <mxCell id="AeJgDYG7hGIS2vElNsl3-43" value="&lt;p class=&quot;MsoNormal&quot;&gt;&lt;span style=&quot;font-family: &amp;#34;calibri&amp;#34; ; font-size: 10.5000pt&quot;&gt;CLOSE_PRICE&lt;/span&gt;&lt;/p&gt;" style="rounded=0;whiteSpace=wrap;html=1;fillColor=#0050ef;strokeColor=#000000;fontColor=#ffffff;" parent="AeJgDYG7hGIS2vElNsl3-1" vertex="1">
          <mxGeometry x="570" y="450" width="120" height="30" as="geometry"/>
        </mxCell>
        <mxCell id="AeJgDYG7hGIS2vElNsl3-44" value="&lt;p class=&quot;MsoNormal&quot;&gt;&lt;span style=&quot;font-family: &amp;#34;calibri&amp;#34; ; font-size: 10.5000pt&quot;&gt;VOLUME&lt;/span&gt;&lt;/p&gt;" style="rounded=0;whiteSpace=wrap;html=1;fillColor=#6a00ff;strokeColor=#000000;fontColor=#ffffff;" parent="AeJgDYG7hGIS2vElNsl3-1" vertex="1">
          <mxGeometry x="570" y="480" width="120" height="30" as="geometry"/>
        </mxCell>
        <mxCell id="AeJgDYG7hGIS2vElNsl3-45" value="&lt;p class=&quot;MsoNormal&quot;&gt;&lt;span style=&quot;font-family: &amp;#34;calibri&amp;#34; ; font-size: 10.5000pt&quot;&gt;CREATED_BY&lt;/span&gt;&lt;/p&gt;" style="rounded=0;whiteSpace=wrap;html=1;" parent="AeJgDYG7hGIS2vElNsl3-1" vertex="1">
          <mxGeometry x="570" y="510" width="120" height="30" as="geometry"/>
        </mxCell>
        <mxCell id="AeJgDYG7hGIS2vElNsl3-52" value="&lt;p class=&quot;MsoNormal&quot;&gt;&lt;span style=&quot;font-family: &amp;#34;calibri&amp;#34; ; font-size: 10.5000pt&quot;&gt;OPEN_PRICE&lt;/span&gt;&lt;/p&gt;" style="rounded=0;whiteSpace=wrap;html=1;fillColor=#60a917;strokeColor=#000000;fontColor=#ffffff;" parent="AeJgDYG7hGIS2vElNsl3-1" vertex="1">
          <mxGeometry x="570" y="360" width="120" height="30" as="geometry"/>
        </mxCell>
        <mxCell id="AeJgDYG7hGIS2vElNsl3-53" value="&lt;p class=&quot;MsoNormal&quot;&gt;&lt;span style=&quot;font-family: &amp;#34;calibri&amp;#34; ; font-size: 10.5000pt&quot;&gt;HIGH_PRICE&lt;/span&gt;&lt;/p&gt;" style="rounded=0;whiteSpace=wrap;html=1;fillColor=#008a00;strokeColor=#000000;fontColor=#ffffff;" parent="AeJgDYG7hGIS2vElNsl3-1" vertex="1">
          <mxGeometry x="570" y="390" width="120" height="30" as="geometry"/>
        </mxCell>
        <mxCell id="AeJgDYG7hGIS2vElNsl3-54" value="&lt;p class=&quot;MsoNormal&quot;&gt;&lt;span style=&quot;font-family: &amp;#34;calibri&amp;#34; ; font-size: 10.5000pt&quot;&gt;LOW_PRICE&lt;/span&gt;&lt;/p&gt;" style="rounded=0;whiteSpace=wrap;html=1;fillColor=#1ba1e2;strokeColor=#000000;fontColor=#ffffff;" parent="AeJgDYG7hGIS2vElNsl3-1" vertex="1">
          <mxGeometry x="570" y="420" width="120" height="30" as="geometry"/>
        </mxCell>
        <mxCell id="AeJgDYG7hGIS2vElNsl3-55" value="&lt;p class=&quot;MsoNormal&quot;&gt;&lt;span style=&quot;font-family: &amp;#34;calibri&amp;#34; ; font-size: 10.5000pt&quot;&gt;BEGIN_TIME&lt;/span&gt;&lt;/p&gt;" style="rounded=0;whiteSpace=wrap;html=1;fillColor=#dae8fc;strokeColor=#000000;" parent="AeJgDYG7hGIS2vElNsl3-1" vertex="1">
          <mxGeometry x="570" y="270" width="120" height="30" as="geometry"/>
        </mxCell>
        <mxCell id="AeJgDYG7hGIS2vElNsl3-56" value="&lt;p class=&quot;MsoNormal&quot;&gt;&lt;span style=&quot;font-family: &amp;#34;calibri&amp;#34; ; font-size: 10.5000pt&quot;&gt;END_TIME&lt;/span&gt;&lt;/p&gt;" style="rounded=0;whiteSpace=wrap;html=1;fillColor=#dae8fc;strokeColor=#000000;" parent="AeJgDYG7hGIS2vElNsl3-1" vertex="1">
          <mxGeometry x="570" y="300" width="120" height="30" as="geometry"/>
        </mxCell>
        <mxCell id="AeJgDYG7hGIS2vElNsl3-57" value="&lt;p class=&quot;MsoNormal&quot;&gt;&lt;span style=&quot;font-family: &amp;#34;calibri&amp;#34; ; font-size: 10.5000pt&quot;&gt;TRADE_DATE&lt;/span&gt;&lt;/p&gt;" style="rounded=0;whiteSpace=wrap;html=1;fillColor=#dae8fc;strokeColor=#000000;" parent="AeJgDYG7hGIS2vElNsl3-1" vertex="1">
          <mxGeometry x="570" y="330" width="120" height="30" as="geometry"/>
        </mxCell>
        <mxCell id="AeJgDYG7hGIS2vElNsl3-58" value="&lt;p class=&quot;MsoNormal&quot;&gt;&lt;span style=&quot;font-family: &amp;#34;calibri&amp;#34; ; font-size: 10.5000pt&quot;&gt;CODE&lt;/span&gt;&lt;/p&gt;" style="rounded=0;whiteSpace=wrap;html=1;" parent="AeJgDYG7hGIS2vElNsl3-1" vertex="1">
          <mxGeometry x="570" y="210" width="120" height="30" as="geometry"/>
        </mxCell>
        <mxCell id="AeJgDYG7hGIS2vElNsl3-60" value="&lt;p class=&quot;MsoNormal&quot;&gt;&lt;span style=&quot;font-family: &amp;#34;calibri&amp;#34; ; font-size: 10.5000pt&quot;&gt;ID&lt;/span&gt;&lt;/p&gt;" style="rounded=0;whiteSpace=wrap;html=1;" parent="AeJgDYG7hGIS2vElNsl3-1" vertex="1">
          <mxGeometry x="570" y="180" width="120" height="30" as="geometry"/>
        </mxCell>
        <mxCell id="AeJgDYG7hGIS2vElNsl3-98" style="edgeStyle=orthogonalEdgeStyle;curved=1;rounded=0;orthogonalLoop=1;jettySize=auto;html=1;entryX=0;entryY=0.5;entryDx=0;entryDy=0;" parent="AeJgDYG7hGIS2vElNsl3-1" source="AeJgDYG7hGIS2vElNsl3-96" target="AeJgDYG7hGIS2vElNsl3-55" edge="1">
          <mxGeometry relative="1" as="geometry"/>
        </mxCell>
        <mxCell id="AeJgDYG7hGIS2vElNsl3-99" style="edgeStyle=orthogonalEdgeStyle;curved=1;rounded=0;orthogonalLoop=1;jettySize=auto;html=1;entryX=0;entryY=0.5;entryDx=0;entryDy=0;" parent="AeJgDYG7hGIS2vElNsl3-1" source="AeJgDYG7hGIS2vElNsl3-96" target="AeJgDYG7hGIS2vElNsl3-56" edge="1">
          <mxGeometry relative="1" as="geometry"/>
        </mxCell>
        <mxCell id="AeJgDYG7hGIS2vElNsl3-101" style="edgeStyle=orthogonalEdgeStyle;curved=1;rounded=0;orthogonalLoop=1;jettySize=auto;html=1;entryX=0;entryY=0.5;entryDx=0;entryDy=0;" parent="AeJgDYG7hGIS2vElNsl3-1" source="AeJgDYG7hGIS2vElNsl3-96" target="AeJgDYG7hGIS2vElNsl3-57" edge="1">
          <mxGeometry relative="1" as="geometry"/>
        </mxCell>
        <mxCell id="AeJgDYG7hGIS2vElNsl3-96" value="timestamp转换并追加颗粒度，生成trade_date" style="rounded=1;whiteSpace=wrap;html=1;fillColor=#dae8fc;strokeColor=#000000;" parent="AeJgDYG7hGIS2vElNsl3-1" vertex="1">
          <mxGeometry x="295" y="180" width="120" height="62.5" as="geometry"/>
        </mxCell>
        <mxCell id="AeJgDYG7hGIS2vElNsl3-100" value="&lt;p class=&quot;MsoNormal&quot;&gt;&lt;span style=&quot;font-family: &amp;#34;calibri&amp;#34; ; font-size: 10.5000pt&quot;&gt;PERIOD&lt;/span&gt;&lt;/p&gt;" style="rounded=0;whiteSpace=wrap;html=1;" parent="AeJgDYG7hGIS2vElNsl3-1" vertex="1">
          <mxGeometry x="570" y="240" width="120" height="30" as="geometry"/>
        </mxCell>
        <mxCell id="AeJgDYG7hGIS2vElNsl3-111" style="edgeStyle=orthogonalEdgeStyle;curved=1;rounded=0;orthogonalLoop=1;jettySize=auto;html=1;entryX=0;entryY=0.5;entryDx=0;entryDy=0;" parent="AeJgDYG7hGIS2vElNsl3-1" source="AeJgDYG7hGIS2vElNsl3-102" target="AeJgDYG7hGIS2vElNsl3-58" edge="1">
          <mxGeometry relative="1" as="geometry">
            <Array as="points">
              <mxPoint x="45" y="130"/>
              <mxPoint x="450" y="130"/>
              <mxPoint x="450" y="225"/>
            </Array>
          </mxGeometry>
        </mxCell>
        <mxCell id="AeJgDYG7hGIS2vElNsl3-161" style="edgeStyle=orthogonalEdgeStyle;curved=1;rounded=0;orthogonalLoop=1;jettySize=auto;html=1;entryX=1;entryY=0.75;entryDx=0;entryDy=0;" parent="AeJgDYG7hGIS2vElNsl3-1" source="AeJgDYG7hGIS2vElNsl3-102" target="AeJgDYG7hGIS2vElNsl3-124" edge="1">
          <mxGeometry relative="1" as="geometry">
            <Array as="points">
              <mxPoint x="-200" y="75"/>
              <mxPoint x="-200" y="222"/>
            </Array>
          </mxGeometry>
        </mxCell>
        <mxCell id="AeJgDYG7hGIS2vElNsl3-102" value="&lt;p class=&quot;MsoNormal&quot;&gt;&lt;span style=&quot;font-family: &amp;#34;calibri&amp;#34; ; font-size: 10.5000pt&quot;&gt;ag1608&lt;/span&gt;&lt;/p&gt;" style="rounded=0;whiteSpace=wrap;html=1;" parent="AeJgDYG7hGIS2vElNsl3-1" vertex="1">
          <mxGeometry x="-30" y="60" width="50" height="30" as="geometry"/>
        </mxCell>
        <mxCell id="AeJgDYG7hGIS2vElNsl3-103" value="&lt;p class=&quot;MsoNormal&quot;&gt;&lt;span style=&quot;font-family: &amp;#34;calibri&amp;#34; ; font-size: 10.5000pt&quot;&gt;odm&lt;/span&gt;&lt;/p&gt;" style="rounded=0;whiteSpace=wrap;html=1;" parent="AeJgDYG7hGIS2vElNsl3-1" vertex="1">
          <mxGeometry x="20" y="60" width="50" height="30" as="geometry"/>
        </mxCell>
        <mxCell id="AeJgDYG7hGIS2vElNsl3-104" value="&lt;p class=&quot;MsoNormal&quot;&gt;&lt;span style=&quot;font-family: &amp;#34;calibri&amp;#34; ; font-size: 10.5000pt&quot;&gt;matching&lt;/span&gt;&lt;/p&gt;" style="rounded=0;whiteSpace=wrap;html=1;" parent="AeJgDYG7hGIS2vElNsl3-1" vertex="1">
          <mxGeometry x="70" y="60" width="60" height="30" as="geometry"/>
        </mxCell>
        <mxCell id="AeJgDYG7hGIS2vElNsl3-105" value="&lt;p class=&quot;MsoNormal&quot;&gt;&lt;span style=&quot;font-family: &amp;#34;calibri&amp;#34; ; font-size: 10.5000pt&quot;&gt;future&lt;/span&gt;&lt;/p&gt;" style="rounded=0;whiteSpace=wrap;html=1;" parent="AeJgDYG7hGIS2vElNsl3-1" vertex="1">
          <mxGeometry x="130" y="60" width="50" height="30" as="geometry"/>
        </mxCell>
        <mxCell id="AeJgDYG7hGIS2vElNsl3-106" value="&lt;p class=&quot;MsoNormal&quot;&gt;&lt;span style=&quot;font-family: &amp;#34;calibri&amp;#34; ; font-size: 10.5000pt&quot;&gt;shfe&lt;/span&gt;&lt;/p&gt;" style="rounded=0;whiteSpace=wrap;html=1;" parent="AeJgDYG7hGIS2vElNsl3-1" vertex="1">
          <mxGeometry x="180" y="60" width="50" height="30" as="geometry"/>
        </mxCell>
        <mxCell id="AeJgDYG7hGIS2vElNsl3-107" value="&lt;p class=&quot;MsoNormal&quot;&gt;&lt;span style=&quot;font-family: &amp;#34;calibri&amp;#34; ; font-size: 10.5000pt&quot;&gt;ohlc&lt;/span&gt;&lt;/p&gt;" style="rounded=0;whiteSpace=wrap;html=1;" parent="AeJgDYG7hGIS2vElNsl3-1" vertex="1">
          <mxGeometry x="230" y="60" width="50" height="30" as="geometry"/>
        </mxCell>
        <mxCell id="AeJgDYG7hGIS2vElNsl3-110" style="edgeStyle=orthogonalEdgeStyle;curved=1;rounded=0;orthogonalLoop=1;jettySize=auto;html=1;entryX=0;entryY=0.5;entryDx=0;entryDy=0;" parent="AeJgDYG7hGIS2vElNsl3-1" source="AeJgDYG7hGIS2vElNsl3-108" target="AeJgDYG7hGIS2vElNsl3-100" edge="1">
          <mxGeometry relative="1" as="geometry">
            <Array as="points">
              <mxPoint x="500" y="75"/>
              <mxPoint x="500" y="255"/>
            </Array>
          </mxGeometry>
        </mxCell>
        <mxCell id="AeJgDYG7hGIS2vElNsl3-108" value="&lt;p class=&quot;MsoNormal&quot;&gt;&lt;span style=&quot;font-family: &amp;#34;calibri&amp;#34; ; font-size: 10.5000pt&quot;&gt;10min&lt;/span&gt;&lt;/p&gt;" style="rounded=0;whiteSpace=wrap;html=1;" parent="AeJgDYG7hGIS2vElNsl3-1" vertex="1">
          <mxGeometry x="280" y="60" width="50" height="30" as="geometry"/>
        </mxCell>
        <mxCell id="AeJgDYG7hGIS2vElNsl3-109" value="&lt;p class=&quot;MsoNormal&quot;&gt;&lt;span style=&quot;font-family: &amp;#34;calibri&amp;#34; ; font-size: 10.5000pt&quot;&gt;table name : ag1608_odm_matching_future_shfe_ohlc_10min&lt;/span&gt;&lt;span style=&quot;font-family: &amp;#34;calibri&amp;#34; ; font-size: 10.5000pt&quot;&gt;&lt;/span&gt;&lt;/p&gt;" style="text;html=1;align=center;verticalAlign=middle;resizable=0;points=[];autosize=1;" parent="AeJgDYG7hGIS2vElNsl3-1" vertex="1">
          <mxGeometry x="-30" y="20" width="370" height="40" as="geometry"/>
        </mxCell>
        <mxCell id="AeJgDYG7hGIS2vElNsl3-112" value="&lt;p class=&quot;MsoNormal&quot;&gt;&lt;span style=&quot;font-family: &amp;#34;calibri&amp;#34; ; font-size: 10.5000pt&quot;&gt;CREATED_TIME&lt;/span&gt;&lt;/p&gt;" style="rounded=0;whiteSpace=wrap;html=1;" parent="AeJgDYG7hGIS2vElNsl3-1" vertex="1">
          <mxGeometry x="-350" y="530" width="120" height="30" as="geometry"/>
        </mxCell>
        <mxCell id="AeJgDYG7hGIS2vElNsl3-113" value="&lt;p class=&quot;MsoNormal&quot;&gt;&lt;span style=&quot;font-family: &amp;#34;calibri&amp;#34; ; font-size: 10.5000pt&quot;&gt;UPDATED_BY&lt;/span&gt;&lt;/p&gt;" style="rounded=0;whiteSpace=wrap;html=1;" parent="AeJgDYG7hGIS2vElNsl3-1" vertex="1">
          <mxGeometry x="-350" y="560" width="120" height="30" as="geometry"/>
        </mxCell>
        <mxCell id="AeJgDYG7hGIS2vElNsl3-114" value="&lt;p class=&quot;MsoNormal&quot;&gt;&lt;span style=&quot;font-family: &amp;#34;calibri&amp;#34; ; font-size: 10.5000pt&quot;&gt;UPDATED_TIME&lt;/span&gt;&lt;/p&gt;" style="rounded=0;whiteSpace=wrap;html=1;" parent="AeJgDYG7hGIS2vElNsl3-1" vertex="1">
          <mxGeometry x="-350" y="590" width="120" height="30" as="geometry"/>
        </mxCell>
        <mxCell id="AeJgDYG7hGIS2vElNsl3-115" value="&lt;p class=&quot;MsoNormal&quot;&gt;&lt;span style=&quot;font-family: &amp;#34;calibri&amp;#34; ; font-size: 10.5000pt&quot;&gt;CLOSE_PRICE&lt;/span&gt;&lt;/p&gt;" style="rounded=0;whiteSpace=wrap;html=1;fillColor=#f8cecc;strokeColor=#000000;" parent="AeJgDYG7hGIS2vElNsl3-1" vertex="1">
          <mxGeometry x="-350" y="440" width="120" height="30" as="geometry"/>
        </mxCell>
        <mxCell id="AeJgDYG7hGIS2vElNsl3-116" value="&lt;p class=&quot;MsoNormal&quot;&gt;&lt;span style=&quot;font-family: &amp;#34;calibri&amp;#34; ; font-size: 10.5000pt&quot;&gt;VOLUME&lt;/span&gt;&lt;/p&gt;" style="rounded=0;whiteSpace=wrap;html=1;" parent="AeJgDYG7hGIS2vElNsl3-1" vertex="1">
          <mxGeometry x="-350" y="470" width="120" height="30" as="geometry"/>
        </mxCell>
        <mxCell id="AeJgDYG7hGIS2vElNsl3-117" value="&lt;p class=&quot;MsoNormal&quot;&gt;&lt;span style=&quot;font-family: &amp;#34;calibri&amp;#34; ; font-size: 10.5000pt&quot;&gt;CREATED_BY&lt;/span&gt;&lt;/p&gt;" style="rounded=0;whiteSpace=wrap;html=1;" parent="AeJgDYG7hGIS2vElNsl3-1" vertex="1">
          <mxGeometry x="-350" y="500" width="120" height="30" as="geometry"/>
        </mxCell>
        <mxCell id="AeJgDYG7hGIS2vElNsl3-118" value="&lt;p class=&quot;MsoNormal&quot;&gt;&lt;span style=&quot;font-family: &amp;#34;calibri&amp;#34; ; font-size: 10.5000pt&quot;&gt;OPEN_PRICE&lt;/span&gt;&lt;/p&gt;" style="rounded=0;whiteSpace=wrap;html=1;fillColor=#d5e8d4;strokeColor=#000000;" parent="AeJgDYG7hGIS2vElNsl3-1" vertex="1">
          <mxGeometry x="-350" y="350" width="120" height="30" as="geometry"/>
        </mxCell>
        <mxCell id="AeJgDYG7hGIS2vElNsl3-119" value="&lt;p class=&quot;MsoNormal&quot;&gt;&lt;span style=&quot;font-family: &amp;#34;calibri&amp;#34; ; font-size: 10.5000pt&quot;&gt;HIGH_PRICE&lt;/span&gt;&lt;/p&gt;" style="rounded=0;whiteSpace=wrap;html=1;fillColor=#ffe6cc;strokeColor=#000000;" parent="AeJgDYG7hGIS2vElNsl3-1" vertex="1">
          <mxGeometry x="-350" y="380" width="120" height="30" as="geometry"/>
        </mxCell>
        <mxCell id="AeJgDYG7hGIS2vElNsl3-120" value="&lt;p class=&quot;MsoNormal&quot;&gt;&lt;span style=&quot;font-family: &amp;#34;calibri&amp;#34; ; font-size: 10.5000pt&quot;&gt;LOW_PRICE&lt;/span&gt;&lt;/p&gt;" style="rounded=0;whiteSpace=wrap;html=1;fillColor=#fff2cc;strokeColor=#000000;" parent="AeJgDYG7hGIS2vElNsl3-1" vertex="1">
          <mxGeometry x="-350" y="410" width="120" height="30" as="geometry"/>
        </mxCell>
        <mxCell id="AeJgDYG7hGIS2vElNsl3-121" value="&lt;p class=&quot;MsoNormal&quot;&gt;&lt;span style=&quot;font-family: &amp;#34;calibri&amp;#34; ; font-size: 10.5000pt&quot;&gt;BEGIN_TIME&lt;/span&gt;&lt;/p&gt;" style="rounded=0;whiteSpace=wrap;html=1;fillColor=#dae8fc;strokeColor=#000000;" parent="AeJgDYG7hGIS2vElNsl3-1" vertex="1">
          <mxGeometry x="-350" y="260" width="120" height="30" as="geometry"/>
        </mxCell>
        <mxCell id="AeJgDYG7hGIS2vElNsl3-122" value="&lt;p class=&quot;MsoNormal&quot;&gt;&lt;span style=&quot;font-family: &amp;#34;calibri&amp;#34; ; font-size: 10.5000pt&quot;&gt;END_TIME&lt;/span&gt;&lt;/p&gt;" style="rounded=0;whiteSpace=wrap;html=1;fillColor=#dae8fc;strokeColor=#000000;" parent="AeJgDYG7hGIS2vElNsl3-1" vertex="1">
          <mxGeometry x="-350" y="290" width="120" height="30" as="geometry"/>
        </mxCell>
        <mxCell id="AeJgDYG7hGIS2vElNsl3-123" value="&lt;p class=&quot;MsoNormal&quot;&gt;&lt;span style=&quot;font-family: &amp;#34;calibri&amp;#34; ; font-size: 10.5000pt&quot;&gt;TRADE_DATE&lt;/span&gt;&lt;/p&gt;" style="rounded=0;whiteSpace=wrap;html=1;fillColor=#dae8fc;strokeColor=#000000;" parent="AeJgDYG7hGIS2vElNsl3-1" vertex="1">
          <mxGeometry x="-350" y="320" width="120" height="30" as="geometry"/>
        </mxCell>
        <mxCell id="AeJgDYG7hGIS2vElNsl3-124" value="&lt;p class=&quot;MsoNormal&quot;&gt;&lt;span style=&quot;font-family: &amp;#34;calibri&amp;#34; ; font-size: 10.5000pt&quot;&gt;CODE&lt;/span&gt;&lt;/p&gt;" style="rounded=0;whiteSpace=wrap;html=1;" parent="AeJgDYG7hGIS2vElNsl3-1" vertex="1">
          <mxGeometry x="-350" y="200" width="120" height="30" as="geometry"/>
        </mxCell>
        <mxCell id="AeJgDYG7hGIS2vElNsl3-125" value="&lt;p class=&quot;MsoNormal&quot;&gt;&lt;span style=&quot;font-family: &amp;#34;calibri&amp;#34; ; font-size: 10.5000pt&quot;&gt;ID&lt;/span&gt;&lt;/p&gt;" style="rounded=0;whiteSpace=wrap;html=1;" parent="AeJgDYG7hGIS2vElNsl3-1" vertex="1">
          <mxGeometry x="-350" y="170" width="120" height="30" as="geometry"/>
        </mxCell>
        <mxCell id="AeJgDYG7hGIS2vElNsl3-126" value="&lt;p class=&quot;MsoNormal&quot;&gt;&lt;span style=&quot;font-family: &amp;#34;calibri&amp;#34; ; font-size: 10.5000pt&quot;&gt;PERIOD&lt;/span&gt;&lt;/p&gt;" style="rounded=0;whiteSpace=wrap;html=1;" parent="AeJgDYG7hGIS2vElNsl3-1" vertex="1">
          <mxGeometry x="-350" y="230" width="120" height="30" as="geometry"/>
        </mxCell>
        <mxCell id="AeJgDYG7hGIS2vElNsl3-158" style="edgeStyle=orthogonalEdgeStyle;curved=1;rounded=0;orthogonalLoop=1;jettySize=auto;html=1;entryX=1;entryY=0.75;entryDx=0;entryDy=0;" parent="AeJgDYG7hGIS2vElNsl3-1" source="AeJgDYG7hGIS2vElNsl3-129" target="AeJgDYG7hGIS2vElNsl3-121" edge="1">
          <mxGeometry relative="1" as="geometry"/>
        </mxCell>
        <mxCell id="AeJgDYG7hGIS2vElNsl3-159" style="edgeStyle=orthogonalEdgeStyle;curved=1;rounded=0;orthogonalLoop=1;jettySize=auto;html=1;entryX=1;entryY=0.5;entryDx=0;entryDy=0;" parent="AeJgDYG7hGIS2vElNsl3-1" source="AeJgDYG7hGIS2vElNsl3-129" target="AeJgDYG7hGIS2vElNsl3-122" edge="1">
          <mxGeometry relative="1" as="geometry"/>
        </mxCell>
        <mxCell id="AeJgDYG7hGIS2vElNsl3-160" style="edgeStyle=orthogonalEdgeStyle;curved=1;rounded=0;orthogonalLoop=1;jettySize=auto;html=1;entryX=1;entryY=0.25;entryDx=0;entryDy=0;" parent="AeJgDYG7hGIS2vElNsl3-1" source="AeJgDYG7hGIS2vElNsl3-129" target="AeJgDYG7hGIS2vElNsl3-123" edge="1">
          <mxGeometry relative="1" as="geometry"/>
        </mxCell>
        <mxCell id="AeJgDYG7hGIS2vElNsl3-129" value="timestamp转换并追加颗粒度，生成trade_date" style="rounded=1;whiteSpace=wrap;html=1;fillColor=#dae8fc;strokeColor=#000000;" parent="AeJgDYG7hGIS2vElNsl3-1" vertex="1">
          <mxGeometry x="-155" y="153.75" width="120" height="62.5" as="geometry"/>
        </mxCell>
        <mxCell id="AeJgDYG7hGIS2vElNsl3-143" style="edgeStyle=orthogonalEdgeStyle;curved=1;rounded=0;orthogonalLoop=1;jettySize=auto;html=1;entryX=1;entryY=0.5;entryDx=0;entryDy=0;" parent="AeJgDYG7hGIS2vElNsl3-1" source="AeJgDYG7hGIS2vElNsl3-130" target="AeJgDYG7hGIS2vElNsl3-118" edge="1">
          <mxGeometry relative="1" as="geometry"/>
        </mxCell>
        <mxCell id="AeJgDYG7hGIS2vElNsl3-130" value="平均" style="rounded=1;whiteSpace=wrap;html=1;fillColor=#d5e8d4;strokeColor=#000000;" parent="AeJgDYG7hGIS2vElNsl3-1" vertex="1">
          <mxGeometry x="-120" y="235" width="50" height="35" as="geometry"/>
        </mxCell>
        <mxCell id="AeJgDYG7hGIS2vElNsl3-144" style="edgeStyle=orthogonalEdgeStyle;curved=1;rounded=0;orthogonalLoop=1;jettySize=auto;html=1;entryX=1;entryY=0.5;entryDx=0;entryDy=0;" parent="AeJgDYG7hGIS2vElNsl3-1" source="AeJgDYG7hGIS2vElNsl3-131" target="AeJgDYG7hGIS2vElNsl3-119" edge="1">
          <mxGeometry relative="1" as="geometry"/>
        </mxCell>
        <mxCell id="AeJgDYG7hGIS2vElNsl3-131" value="平均" style="rounded=1;whiteSpace=wrap;html=1;fillColor=#ffe6cc;strokeColor=#000000;" parent="AeJgDYG7hGIS2vElNsl3-1" vertex="1">
          <mxGeometry x="-120" y="297.5" width="50" height="35" as="geometry"/>
        </mxCell>
        <mxCell id="AeJgDYG7hGIS2vElNsl3-145" style="edgeStyle=orthogonalEdgeStyle;curved=1;rounded=0;orthogonalLoop=1;jettySize=auto;html=1;entryX=1;entryY=0.5;entryDx=0;entryDy=0;" parent="AeJgDYG7hGIS2vElNsl3-1" source="AeJgDYG7hGIS2vElNsl3-132" target="AeJgDYG7hGIS2vElNsl3-120" edge="1">
          <mxGeometry relative="1" as="geometry"/>
        </mxCell>
        <mxCell id="AeJgDYG7hGIS2vElNsl3-132" value="平均" style="rounded=1;whiteSpace=wrap;html=1;fillColor=#fff2cc;strokeColor=#000000;" parent="AeJgDYG7hGIS2vElNsl3-1" vertex="1">
          <mxGeometry x="-120" y="360" width="50" height="35" as="geometry"/>
        </mxCell>
        <mxCell id="AeJgDYG7hGIS2vElNsl3-146" style="edgeStyle=orthogonalEdgeStyle;curved=1;rounded=0;orthogonalLoop=1;jettySize=auto;html=1;entryX=1;entryY=0.5;entryDx=0;entryDy=0;" parent="AeJgDYG7hGIS2vElNsl3-1" source="AeJgDYG7hGIS2vElNsl3-133" target="AeJgDYG7hGIS2vElNsl3-115" edge="1">
          <mxGeometry relative="1" as="geometry"/>
        </mxCell>
        <mxCell id="AeJgDYG7hGIS2vElNsl3-133" value="平均" style="rounded=1;whiteSpace=wrap;html=1;fillColor=#f8cecc;strokeColor=#000000;" parent="AeJgDYG7hGIS2vElNsl3-1" vertex="1">
          <mxGeometry x="-120" y="420" width="50" height="35" as="geometry"/>
        </mxCell>
        <mxCell id="AeJgDYG7hGIS2vElNsl3-155" style="edgeStyle=orthogonalEdgeStyle;curved=1;rounded=0;orthogonalLoop=1;jettySize=auto;html=1;entryX=1;entryY=0.5;entryDx=0;entryDy=0;" parent="AeJgDYG7hGIS2vElNsl3-1" source="AeJgDYG7hGIS2vElNsl3-152" target="AeJgDYG7hGIS2vElNsl3-116" edge="1">
          <mxGeometry relative="1" as="geometry"/>
        </mxCell>
        <mxCell id="AeJgDYG7hGIS2vElNsl3-152" value="平均" style="rounded=1;whiteSpace=wrap;html=1;" parent="AeJgDYG7hGIS2vElNsl3-1" vertex="1">
          <mxGeometry x="-120" y="475" width="50" height="35" as="geometry"/>
        </mxCell>
        <mxCell id="ynQzKYrvTuLXBL-S-Aev-0" value="&lt;p class=&quot;MsoNormal&quot;&gt;&lt;span style=&quot;font-family: &amp;#34;calibri&amp;#34; ; font-size: 10.5000pt&quot;&gt;Mid&lt;/span&gt;&lt;/p&gt;" style="rounded=0;whiteSpace=wrap;html=1;fillColor=#e1d5e7;strokeColor=#9673a6;" vertex="1" parent="AeJgDYG7hGIS2vElNsl3-1">
          <mxGeometry x="-350" y="140" width="120" height="30" as="geometry"/>
        </mxCell>
        <mxCell id="ynQzKYrvTuLXBL-S-Aev-1" value="&lt;p class=&quot;MsoNormal&quot;&gt;&lt;span style=&quot;font-family: &amp;#34;calibri&amp;#34; ; font-size: 10.5000pt&quot;&gt;Trade&lt;/span&gt;&lt;/p&gt;" style="rounded=0;whiteSpace=wrap;html=1;fillColor=#e1d5e7;strokeColor=#9673a6;" vertex="1" parent="AeJgDYG7hGIS2vElNsl3-1">
          <mxGeometry x="570" y="150" width="120" height="30" as="geometry"/>
        </mxCell>
      </root>
    </mxGraphModel>
  </diagram>
</mxfile>
